<svg xmlns="http://www.w3.org/2000/svg" xmlns:xlink="http://www.w3.org/1999/xlink" width="33" height="33" viewBox="0 0 33 33"><defs><clipPath id="a"><rect width="18" height="15.788" fill="none"/></clipPath><clipPath id="c"><rect width="33" height="33"/></clipPath></defs><g id="b" clip-path="url(#c)"><g transform="translate(8 9)"><g clip-path="url(#a)"><path d="M16.689,6.76a1.1,1.1,0,0,1,.789.309,1.042,1.042,0,0,1,.325.789.993.993,0,0,1-.325.773,1.265,1.265,0,0,1-.789.325h-.124l-.99,5.722a1.061,1.061,0,0,1-.387.65,1.163,1.163,0,0,1-.7.263H3.435a1.047,1.047,0,0,1-.7-.263,1.121,1.121,0,0,1-.387-.65l-.99-5.722H1.223A1.056,1.056,0,0,1,.45,8.631a1.056,1.056,0,0,1-.325-.773A1.108,1.108,0,0,1,.45,7.069a.937.937,0,0,1,.773-.309ZM4.239,2.646,3.435,6.2H2.29l.866-3.8A2.2,2.2,0,0,1,5.306.682H6.76A.525.525,0,0,1,6.915.3.582.582,0,0,1,7.3.125h3.325a.533.533,0,0,1,.387.17.481.481,0,0,1,.155.387h1.454A2.152,2.152,0,0,1,14,1.161,2.064,2.064,0,0,1,14.756,2.4l.882,3.8H14.493l-.8-3.557a1.085,1.085,0,0,0-.387-.619,1.144,1.144,0,0,0-.681-.247H11.168a.525.525,0,0,1-.155.387.582.582,0,0,1-.387.17H7.3a.533.533,0,0,1-.387-.17A.481.481,0,0,1,6.76,1.78H5.306a1.025,1.025,0,0,0-.681.247,1.157,1.157,0,0,0-.387.619m.077,11.012a.52.52,0,0,0,.371-.2.549.549,0,0,0,.139-.4L4.548,9.467a.52.52,0,0,0-.2-.371.551.551,0,0,0-.4-.139.52.52,0,0,0-.371.2.551.551,0,0,0-.139.4l.278,3.588a.539.539,0,0,0,.186.371.482.482,0,0,0,.371.139ZM7.858,13.1V9.513a.547.547,0,0,0-.943-.387.481.481,0,0,0-.155.387V13.1a.525.525,0,0,0,.155.387.582.582,0,0,0,.387.17.441.441,0,0,0,.387-.17.683.683,0,0,0,.17-.387m3.31,0V9.513a.559.559,0,0,0-.155-.387.524.524,0,0,0-.773,0,.629.629,0,0,0-.17.387V13.1a.5.5,0,0,0,.17.387.629.629,0,0,0,.387.17.465.465,0,0,0,.387-.17.507.507,0,0,0,.155-.387m3.047.046.278-3.588a.523.523,0,0,0-.139-.4.606.606,0,0,0-.371-.2.477.477,0,0,0-.4.139.564.564,0,0,0-.2.371L13.1,13.055a.523.523,0,0,0,.139.4.606.606,0,0,0,.371.2h.046a.536.536,0,0,0,.371-.139.584.584,0,0,0,.186-.371" transform="translate(0.036 0.036)" fill="#fff"/><path d="M16.689,6.76a1.1,1.1,0,0,1,.789.309,1.042,1.042,0,0,1,.325.789.993.993,0,0,1-.325.773,1.265,1.265,0,0,1-.789.325h-.124l-.99,5.722a1.061,1.061,0,0,1-.387.65,1.163,1.163,0,0,1-.7.263H3.435a1.047,1.047,0,0,1-.7-.263,1.121,1.121,0,0,1-.387-.65l-.99-5.722H1.223A1.056,1.056,0,0,1,.45,8.631a1.056,1.056,0,0,1-.325-.773A1.108,1.108,0,0,1,.45,7.069a.937.937,0,0,1,.773-.309ZM4.239,2.646,3.435,6.2H2.29l.866-3.8A2.2,2.2,0,0,1,5.306.682H6.76A.525.525,0,0,1,6.915.3.582.582,0,0,1,7.3.125h3.325a.533.533,0,0,1,.387.17.481.481,0,0,1,.155.387h1.454A2.152,2.152,0,0,1,14,1.161,2.064,2.064,0,0,1,14.756,2.4l.882,3.8H14.493l-.8-3.557a1.085,1.085,0,0,0-.387-.619,1.144,1.144,0,0,0-.681-.247H11.168a.525.525,0,0,1-.155.387.582.582,0,0,1-.387.17H7.3a.533.533,0,0,1-.387-.17A.481.481,0,0,1,6.76,1.78H5.306a1.025,1.025,0,0,0-.681.247A1.157,1.157,0,0,0,4.239,2.646Zm.077,11.012a.52.52,0,0,0,.371-.2.549.549,0,0,0,.139-.4L4.548,9.467a.52.52,0,0,0-.2-.371.551.551,0,0,0-.4-.139.52.52,0,0,0-.371.2.551.551,0,0,0-.139.4l.278,3.588a.539.539,0,0,0,.186.371.482.482,0,0,0,.371.139ZM7.858,13.1V9.513a.547.547,0,0,0-.943-.387.481.481,0,0,0-.155.387V13.1a.525.525,0,0,0,.155.387.582.582,0,0,0,.387.17.441.441,0,0,0,.387-.17A.683.683,0,0,0,7.858,13.1Zm3.31,0V9.513a.559.559,0,0,0-.155-.387.524.524,0,0,0-.773,0,.629.629,0,0,0-.17.387V13.1a.5.5,0,0,0,.17.387.629.629,0,0,0,.387.17.465.465,0,0,0,.387-.17A.507.507,0,0,0,11.168,13.1Zm3.047.046.278-3.588a.523.523,0,0,0-.139-.4.606.606,0,0,0-.371-.2.477.477,0,0,0-.4.139.564.564,0,0,0-.2.371L13.1,13.055a.523.523,0,0,0,.139.4.606.606,0,0,0,.371.2h.046a.536.536,0,0,0,.371-.139A.584.584,0,0,0,14.215,13.147Z" transform="translate(0.036 0.036)" fill="none" stroke="#aeb0b3" stroke-miterlimit="10" stroke-width="0.25"/></g></g></g></svg>