<svg xmlns="http://www.w3.org/2000/svg" xmlns:xlink="http://www.w3.org/1999/xlink" width="33" height="33" viewBox="0 0 33 33"><defs><clipPath id="a"><rect width="18" height="15.498" fill="none"/></clipPath><clipPath id="c"><rect width="33" height="33"/></clipPath></defs><g id="b" clip-path="url(#c)"><g transform="translate(8 9)"><g transform="translate(0 0)" clip-path="url(#a)"><path d="M17.758,4.746A6.437,6.437,0,0,1,15.5,9.172L9.382,15.079a.639.639,0,0,1-.882,0L2.364,9.154,2.1,8.89a7.911,7.911,0,0,1-.547-.652q-.37-.476-.67-.952A5.3,5.3,0,0,1,.354,6.1,4.387,4.387,0,0,1,.125,4.746,4.5,4.5,0,0,1,1.377,1.361,4.808,4.808,0,0,1,4.833.126,3.893,3.893,0,0,1,6.067.338,4.8,4.8,0,0,1,7.249.92q.547.37.952.67a5.018,5.018,0,0,1,.741.67q.353-.353.741-.67a9.294,9.294,0,0,1,.952-.67A6.483,6.483,0,0,1,11.815.338,3.252,3.252,0,0,1,13.05.126a4.709,4.709,0,0,1,3.456,1.234,4.538,4.538,0,0,1,1.252,3.385" transform="translate(0.059 0.058)" fill="#fff"/><path d="M17.758,4.746A6.437,6.437,0,0,1,15.5,9.172L9.382,15.079a.639.639,0,0,1-.882,0L2.364,9.154,2.1,8.89a7.911,7.911,0,0,1-.547-.652q-.37-.476-.67-.952A5.3,5.3,0,0,1,.354,6.1,4.387,4.387,0,0,1,.125,4.746,4.5,4.5,0,0,1,1.377,1.361,4.808,4.808,0,0,1,4.833.126,3.893,3.893,0,0,1,6.067.338,4.8,4.8,0,0,1,7.249.92q.547.37.952.67a5.018,5.018,0,0,1,.741.67q.353-.353.741-.67a9.294,9.294,0,0,1,.952-.67A6.483,6.483,0,0,1,11.815.338,3.252,3.252,0,0,1,13.05.126a4.709,4.709,0,0,1,3.456,1.234A4.538,4.538,0,0,1,17.758,4.746Z" transform="translate(0.059 0.058)" fill="none" stroke="#aeb0b3" stroke-miterlimit="10" stroke-width="0.25"/></g></g></g></svg>