<svg xmlns="http://www.w3.org/2000/svg" xmlns:xlink="http://www.w3.org/1999/xlink" width="33" height="33" viewBox="0 0 33 33"><defs><clipPath id="a"><rect width="17.982" height="18" fill="none"/></clipPath><clipPath id="c"><rect width="33" height="33"/></clipPath></defs><g id="b" clip-path="url(#c)"><g transform="translate(-119 59)"><g transform="translate(127 -51)" clip-path="url(#a)"><path d="M15.737.6a4.5,4.5,0,0,1,1.641,1.632,4.336,4.336,0,0,1,.6,2.237v9.054a4.333,4.333,0,0,1-.6,2.236A4.5,4.5,0,0,1,15.737,17.4a4.424,4.424,0,0,1-2.264.6H4.491a4.371,4.371,0,0,1-2.255-.6A4.527,4.527,0,0,1,.6,15.763,4.33,4.33,0,0,1,0,13.527V4.473A4.334,4.334,0,0,1,.6,2.236,4.526,4.526,0,0,1,2.237.6,4.373,4.373,0,0,1,4.491,0h8.981a4.427,4.427,0,0,1,2.264.6M16.3,4.473a2.747,2.747,0,0,0-.379-1.407A2.806,2.806,0,0,0,14.9,2.038a2.777,2.777,0,0,0-1.425-.379H4.491a2.777,2.777,0,0,0-1.425.379A2.81,2.81,0,0,0,2.038,3.066a2.747,2.747,0,0,0-.379,1.407V6.024H6.6a4.245,4.245,0,0,1,4.942,0H16.3Zm0,3.21H12.932a3.974,3.974,0,0,1,.415,1.8,4.1,4.1,0,0,1-.577,2.128,4.333,4.333,0,0,1-1.56,1.551,4.243,4.243,0,0,1-4.274,0,4.323,4.323,0,0,1-1.56-1.551A4.1,4.1,0,0,1,4.8,9.487a4.205,4.205,0,0,1,.415-1.8H1.659v5.844a2.746,2.746,0,0,0,.379,1.407,2.812,2.812,0,0,0,1.028,1.028,2.779,2.779,0,0,0,1.425.379h8.981a2.779,2.779,0,0,0,1.425-.379,2.808,2.808,0,0,0,1.028-1.028,2.746,2.746,0,0,0,.379-1.407Zm-8.766,2.7a1.725,1.725,0,0,0,.64.641,1.82,1.82,0,0,0,1.786,0,1.723,1.723,0,0,0,.641-.641,1.82,1.82,0,0,0,0-1.786,1.726,1.726,0,0,0-.641-.64,1.82,1.82,0,0,0-1.786,0,1.729,1.729,0,0,0-.64.64,1.815,1.815,0,0,0,0,1.786m7.323-7.566a.468.468,0,0,1,.144.343V4.707a.467.467,0,0,1-.144.343.489.489,0,0,1-.361.145H12.968a.5.5,0,0,1-.351-.145.455.455,0,0,1-.154-.343V3.156a.456.456,0,0,1,.154-.343.5.5,0,0,1,.351-.145H14.5a.491.491,0,0,1,.361.145" transform="translate(0 0)" fill="#fff"/></g></g></g></svg>