<svg xmlns="http://www.w3.org/2000/svg" xmlns:xlink="http://www.w3.org/1999/xlink" width="33" height="33" viewBox="0 0 33 33"><defs><clipPath id="a"><rect width="13.929" height="18" fill="none"/></clipPath><clipPath id="c"><rect width="33" height="33"/></clipPath></defs><g id="b" clip-path="url(#c)"><g transform="translate(10 8)"><g transform="translate(0 0)" clip-path="url(#a)"><path d="M0,6.461a5.583,5.583,0,0,1,.486-2.25A7.387,7.387,0,0,1,1.853,2.142,6.437,6.437,0,0,1,4.193.594,8.418,8.418,0,0,1,7.4,0a6.5,6.5,0,0,1,4.7,1.764,5.581,5.581,0,0,1,1.836,4.157A8.041,8.041,0,0,1,12.381,11,4.912,4.912,0,0,1,8.35,13.012a3.138,3.138,0,0,1-1.511-.378,2.436,2.436,0,0,1-1.008-.918l-.72,2.843a5.219,5.219,0,0,1-.234.684c-.1.228-.2.456-.306.684a4.813,4.813,0,0,1-.342.612c-.12.18-.233.36-.342.54a2.9,2.9,0,0,1-.305.432,3.35,3.35,0,0,0-.234.288l-.108.144A.134.134,0,0,1,3.1,18a.126.126,0,0,1-.108-.108l-.018-.252q-.018-.234-.054-.486t-.054-.684q-.019-.432-.018-.792a8.335,8.335,0,0,1,.054-.864q.054-.5.126-.863L4.355,8.315a3.01,3.01,0,0,1-.234-.7,3.267,3.267,0,0,1-.09-.648L4.013,6.7a3.074,3.074,0,0,1,.594-1.926,1.687,1.687,0,0,1,1.4-.756,1.314,1.314,0,0,1,1.044.432,1.567,1.567,0,0,1,.36,1.115,4.4,4.4,0,0,1-.144,1.008q-.145.593-.414,1.385A9.7,9.7,0,0,0,6.5,9.233a1.539,1.539,0,0,0,.324,1.4,1.643,1.643,0,0,0,1.314.594,2.725,2.725,0,0,0,2.358-1.62,7.525,7.525,0,0,0,.917-3.887,3.844,3.844,0,0,0-1.133-2.862,4.266,4.266,0,0,0-3.167-1.1A4.864,4.864,0,0,0,3.437,3.222,4.921,4.921,0,0,0,2.016,6.713,3.089,3.089,0,0,0,2.7,8.746a.585.585,0,0,1,.144.576,3.4,3.4,0,0,0-.107.414,3.527,3.527,0,0,1-.108.414.3.3,0,0,1-.18.252.5.5,0,0,1-.324,0A2.961,2.961,0,0,1,.54,8.909,5.65,5.65,0,0,1,0,6.461" transform="translate(0 0)" fill="#fff"/></g></g></g></svg>