<svg xmlns="http://www.w3.org/2000/svg" xmlns:xlink="http://www.w3.org/1999/xlink" width="33" height="33" viewBox="0 0 33 33"><defs><clipPath id="a"><rect width="18" height="14.635" transform="translate(0 0)" fill="none"/></clipPath><clipPath id="c"><rect width="33" height="33"/></clipPath></defs><g id="b" clip-path="url(#c)"><g transform="translate(8 9)"><g transform="translate(0 0)" clip-path="url(#a)"><path d="M0,12.981q.439.044.878.044a7.256,7.256,0,0,0,4.595-1.58,3.556,3.556,0,0,1-2.151-.732,3.607,3.607,0,0,1-1.3-1.829,3.534,3.534,0,0,0,.688.058,3.6,3.6,0,0,0,.98-.132A3.517,3.517,0,0,1,1.566,7.537,3.672,3.672,0,0,1,.717,5.2V5.151A3.47,3.47,0,0,0,2.4,5.605,3.545,3.545,0,0,1,1.2,4.288,3.8,3.8,0,0,1,.746,2.532,3.577,3.577,0,0,1,1.259.674,10.151,10.151,0,0,0,4.624,3.4,10.645,10.645,0,0,0,8.868,4.537a4.151,4.151,0,0,1-.1-.849A3.551,3.551,0,0,1,9.849,1.083a3.7,3.7,0,0,1,5.312.087A7.391,7.391,0,0,0,17.5.264a3.515,3.515,0,0,1-1.61,2.048A7.545,7.545,0,0,0,18,1.727a7.093,7.093,0,0,1-1.829,1.918v.483a10.665,10.665,0,0,1-.424,2.956A10.416,10.416,0,0,1,14.43,9.923a11.388,11.388,0,0,1-2.122,2.414A9.493,9.493,0,0,1,9.366,14.02a10.427,10.427,0,0,1-3.7.615A10.36,10.36,0,0,1,0,12.981" transform="translate(0 0)" fill="#fff"/></g></g></g></svg>