<svg xmlns="http://www.w3.org/2000/svg" xmlns:xlink="http://www.w3.org/1999/xlink" width="33" height="33" viewBox="0 0 33 33"><defs><clipPath id="a"><rect width="14.997" height="18" fill="none"/></clipPath><clipPath id="c"><rect width="33" height="33"/></clipPath></defs><g id="b" clip-path="url(#c)"><g transform="translate(9 8)"><g transform="translate(0 0)" clip-path="url(#a)"><path d="M15.007,14.925a3.38,3.38,0,0,1-.73,2.168,2.177,2.177,0,0,1-1.75.917H2.606a2.176,2.176,0,0,1-1.751-.917,3.374,3.374,0,0,1-.73-2.168,15.856,15.856,0,0,1,.1-1.876,11.7,11.7,0,0,1,.355-1.772,4.954,4.954,0,0,1,.687-1.521A3.884,3.884,0,0,1,2.356,8.714a2.745,2.745,0,0,1,1.583-.4,4.989,4.989,0,0,0,3.628,1.5,5.055,5.055,0,0,0,3.647-1.5,3.082,3.082,0,0,1,1.564.4,3.013,3.013,0,0,1,1.084,1.042,7.437,7.437,0,0,1,.688,1.521,7.939,7.939,0,0,1,.375,1.772q.082.9.083,1.876M12.027,4.607a4.328,4.328,0,0,1-1.292,3.148A4.276,4.276,0,0,1,7.566,9.067,4.206,4.206,0,0,1,4.419,7.755,4.518,4.518,0,0,1,3.105,4.607,4.15,4.15,0,0,1,4.419,1.439,4.272,4.272,0,0,1,7.566.126a4.575,4.575,0,0,1,3.168,1.314,3.922,3.922,0,0,1,1.292,3.168" transform="translate(-0.067 -0.068)" fill="#fff"/><path d="M15.007,14.925a3.38,3.38,0,0,1-.73,2.168,2.177,2.177,0,0,1-1.75.917H2.606a2.176,2.176,0,0,1-1.751-.917,3.374,3.374,0,0,1-.73-2.168,15.856,15.856,0,0,1,.1-1.876,11.7,11.7,0,0,1,.355-1.772,4.954,4.954,0,0,1,.687-1.521A3.884,3.884,0,0,1,2.356,8.714a2.745,2.745,0,0,1,1.583-.4,4.989,4.989,0,0,0,3.628,1.5,5.055,5.055,0,0,0,3.647-1.5,3.082,3.082,0,0,1,1.564.4,3.013,3.013,0,0,1,1.084,1.042,7.437,7.437,0,0,1,.688,1.521,7.939,7.939,0,0,1,.375,1.772Q15.006,13.945,15.007,14.925ZM12.027,4.607a4.328,4.328,0,0,1-1.292,3.148A4.276,4.276,0,0,1,7.566,9.067,4.206,4.206,0,0,1,4.419,7.755,4.518,4.518,0,0,1,3.105,4.607,4.15,4.15,0,0,1,4.419,1.439,4.272,4.272,0,0,1,7.566.126a4.575,4.575,0,0,1,3.168,1.314A3.922,3.922,0,0,1,12.027,4.607Z" transform="translate(-0.067 -0.068)" fill="none" stroke="#aeb0b3" stroke-miterlimit="10" stroke-width="0.25"/></g></g></g></svg>