<svg xmlns="http://www.w3.org/2000/svg" xmlns:xlink="http://www.w3.org/1999/xlink" width="33" height="33" viewBox="0 0 33 33"><defs><clipPath id="a"><rect width="15.023" height="18" fill="none"/></clipPath><clipPath id="c"><rect width="33" height="33"/></clipPath></defs><g id="b" clip-path="url(#c)"><g transform="translate(-128 68)"><g transform="translate(137 -60)" clip-path="url(#a)"><path d="M0,12.951q0-.94.1-2.82A2.311,2.311,0,0,1,.766,8.617,2.174,2.174,0,0,1,2.28,7.99Q4.022,7.9,7.521,7.9t5.24.087a2.2,2.2,0,0,1,2.176,2.141q.087,1.566.087,2.82t-.087,2.82a2.31,2.31,0,0,1-.662,1.515,2.178,2.178,0,0,1-1.514.626Q11.02,18,7.521,18t-5.24-.087a2.282,2.282,0,0,1-1.514-.626A2.263,2.263,0,0,1,.1,15.772q-.1-1.88-.1-2.82M1.167,10.5H2.228v5.675H3.256V10.5H4.318V9.539H1.167ZM2.3,0H3.343L4,2.646h.07L4.7,0H5.745l-.8,2.576q-.4,1.271-.4,1.306v2.75H3.516V4a4.4,4.4,0,0,0-.087-.453A2.96,2.96,0,0,0,3.273,3.1a3.406,3.406,0,0,1-.156-.435Zm2.02,15.406q0,.836.627.836a1.409,1.409,0,0,0,1.062-.609v.54h.905V11.28H6.006v3.725c-.244.244-.424.366-.54.366-.163,0-.244-.111-.244-.331V11.28H4.318ZM5.692,5.4V2.855a1.152,1.152,0,0,1,.383-.922,1.393,1.393,0,0,1,.966-.322,1.347,1.347,0,0,1,.948.357,1.164,1.164,0,0,1,.349.922V5.414a1.317,1.317,0,0,1-.349.975,1.333,1.333,0,0,1-.966.357,1.216,1.216,0,0,1-.966-.375A1.461,1.461,0,0,1,5.692,5.4m.94.122a.35.35,0,0,0,.392.4c.262,0,.392-.145.392-.435V2.82a.329.329,0,0,0-.122-.262.415.415,0,0,0-.278-.1.4.4,0,0,0-.261.087.375.375,0,0,0-.122.261ZM7.8,16.172h.923v-.365a1.072,1.072,0,0,0,.87.435q.818,0,.818-1.08V12.446q0-1.236-.888-1.235a1.025,1.025,0,0,0-.8.47V9.539H7.8Zm.923-.923V12.186a.552.552,0,0,1,.383-.192c.255,0,.383.163.383.488v2.576q0,.417-.331.418a.561.561,0,0,1-.435-.227m.4-9.383V1.74h.905V5.483c0,.22.078.331.235.331s.339-.122.548-.365V1.74h.905V6.632h-.905v-.54A1.408,1.408,0,0,1,9.749,6.7q-.627,0-.627-.835m1.984,8.93a1.759,1.759,0,0,0,.331,1.1,1.127,1.127,0,0,0,.992.418q1.358,0,1.358-1.514v-.365h-.94l.018.227a.759.759,0,0,1-.018.3.77.77,0,0,0-.035.244.227.227,0,0,1-.122.209.377.377,0,0,1-.244.052q-.4,0-.4-.7V13.84h1.74V12.586a1.6,1.6,0,0,0-.313-1.045,1.209,1.209,0,0,0-.992-.382,1.277,1.277,0,0,0-.992.4,1.533,1.533,0,0,0-.383,1.027Zm.941-1.723v-.522q0-.54.4-.54t.4.54v.522Z" fill="#fff"/></g></g></g></svg>